<?xml version="1.0" encoding="UTF-8"?>
<!DOCTYPE svg PUBLIC "-//W3C//DTD SVG 1.1//EN" "http://www.w3.org/Graphics/SVG/1.1/DTD/svg11.dtd">
<!-- Creator: CorelDRAW -->
<svg xmlns="http://www.w3.org/2000/svg" xml:space="preserve" width="297mm" height="210mm" version="1.1" style="shape-rendering:geometricPrecision; text-rendering:geometricPrecision; image-rendering:optimizeQuality; fill-rule:evenodd; clip-rule:evenodd"
viewBox="0 0 29700 21000"
 xmlns:xlink="http://www.w3.org/1999/xlink"
 xmlns:xodm="http://www.corel.com/coreldraw/odm/2003">
 <defs>
  <style type="text/css">
   <![CDATA[
    .fil0 {fill:#01392C}
    .fil3 {fill:#C6D90D}
    .fil2 {fill:#DBD40A}
    .fil1 {fill:#F3CE04}
   ]]>
  </style>
 </defs>
 <g id="Layer_x0020_1">
  <metadata id="CorelCorpID_0Corel-Layer"/>
  <rect class="fil0" x="9358.63" y="5016.29" width="10981.68" height="10981.68"/>
  <g id="_2207566186128">
   <path class="fil1" d="M13515.33 10910.32c-177.65,16.51 -417.92,10.39 -586.6,30.89 -79.83,9.69 -496.37,23.94 -591.83,28.93 -194.02,10.13 -393.23,19.15 -585.77,32.49 -176.67,12.24 -413.04,-37.3 -418.07,205.55 -12.7,613.5 10.44,1246.73 -0.54,1855.73 -0.79,43.75 -5.19,109.78 9.51,147.7 8.83,22.74 51.33,75.95 66.8,88.53 72.08,58.56 174.56,34.82 231.51,-15.83l826.94 -717.72c57.62,-47.27 107.3,-96.48 166.7,-144.21 57.92,-46.52 105.76,-101.08 164.54,-146.57l415.64 -356.53c53.98,-52.85 109.81,-95.43 165.86,-145.47l330.21 -286.68c87.75,-75.16 201.68,-146.75 138.12,-293.96l-117.02 -194c-46.66,-79.08 -98.29,-99.79 -216,-88.85z"/>
   <path class="fil2" d="M16090.94 10905.79c-97.45,21.65 -114.62,72.67 -158.85,148.51 -33.16,56.86 -99.16,131.92 -85.09,216.37 14.65,87.9 80.4,130.9 131.17,174.09l742.06 641.76c81.52,69.02 252.12,213.3 325.52,285.82l164.56 141.1c30.21,25.01 52.54,45.57 82.66,72.8l83.33 72.18c106.66,93.32 226.43,188.16 328.98,282.62l246.8 214.36c38.09,33.94 123.06,117.8 177.57,133.58 98.44,28.49 179.32,-26.56 213.16,-81.28 36.42,-58.9 24.56,-203.17 24.52,-283.23l0.05 -1533.91c-0.11,-88.51 12.41,-220.67 -26.82,-286.49 -56.64,-95.05 -128.28,-91.08 -211.17,-95.46 -283.41,-14.97 -595.17,-37.16 -874.25,-46.92 -287.96,-10.08 -583.09,-27.07 -870.82,-45.17 -50.65,-3.19 -260.63,-18.01 -293.38,-10.73z"/>
   <path class="fil2" d="M12075.19 8482.44c-62.58,12.14 -274.93,150.46 -346.86,191.62 -45.93,26.29 -313.5,181.77 -335.3,201.13 -64.88,57.58 -59.89,98.41 -59.95,209.15l-0.03 809.86c0,143.94 -35.9,332.46 183.67,353.88 81.5,7.95 167.18,11.74 248.17,19.19 82.23,7.55 162.73,17.07 244.97,22.99 162.32,11.68 330.01,32.06 493.27,42.48 165.89,10.57 332.56,33.68 499.1,43.51 103.7,6.13 418.43,52.8 495.11,24.08 145.3,-54.41 102.38,-193.3 168.37,-368.2 52.16,-138.25 63.74,-173.82 -44.4,-279.8 -93.65,-91.78 -264.42,-226.02 -359.38,-316.49l-427.57 -376.86c-12.42,-10.23 -21.28,-20.16 -33.73,-30.6l-214.48 -187.77c-15.51,-15.52 -20.09,-20.91 -35.75,-33.87 -90.82,-75.15 -191.92,-176.02 -284.48,-252.05 -49.74,-40.86 -92.19,-91.35 -190.73,-72.25z"/>
   <path class="fil3" d="M17537.61 8529.23c-67.81,14 -115.95,70.55 -156.93,106.84 -23.57,20.88 -50.17,41.18 -71.71,62.38 -23.92,23.53 -45.73,43.87 -69.8,64.06 -125.03,104.85 -306.33,279.53 -422,371.85 -25.46,20.32 -49.7,40.95 -71.55,62.55l-636.19 559.9c-37.33,36.92 -99.56,78.84 -104.53,158.63 -3.55,56.83 36.53,158.66 53.11,215.83 20.45,70.55 17.77,154.84 56.47,206.37 22.09,29.42 33.78,44.59 71.41,62.73 30.88,14.88 72.64,19.69 110.86,15.19 162.02,-19.09 329.89,-26.88 492.89,-42.23 322.38,-30.34 652.32,-50.51 975.73,-86.03 86.19,-9.46 430.39,-29.07 482.84,-49.08 152.72,-58.32 118.29,-235.63 118.21,-413.74 -0.04,-86.84 8.18,-732.02 -7.66,-787.18 -22.45,-78.16 -75.61,-96.47 -132.44,-135.65l-326.84 -204.25c-58.36,-36.06 -107.85,-68.46 -164.83,-103.26 -53.07,-32.42 -110.52,-82.77 -197.04,-64.91z"/>
   <path class="fil1" d="M15355.54 11581.45c-51.83,16.31 -156.37,52.26 -191.93,77.41 -58.2,41.14 -78.25,97.47 -73.73,197.75 7.82,173.76 16.21,345.82 25.79,520.8 19.11,349.2 29.7,697.19 47.54,1046.06 8.14,159.01 -21.12,357.12 129.31,411.95 64.45,23.49 437.25,12.45 536,12.44 364.63,-0.02 729.52,-1.43 1094.12,-0.05 97.87,0.37 156.42,1.53 212.02,-56.92 46.05,-48.41 71.3,-129.01 34.05,-205.96 -12.72,-26.28 -339.12,-411.65 -371.06,-449.66 -42.61,-50.69 -83.68,-97.73 -124.96,-148.59 -20.77,-25.61 -42.6,-47.08 -62.4,-71.79 -22.23,-27.76 -41.27,-51.28 -63.45,-75.96 -79.18,-88.12 -163.89,-200.94 -246.84,-294.91 -208.29,-235.98 -418.62,-505.74 -624.32,-743.16 -46.87,-54.11 -137.01,-179.36 -198.7,-208.8 -31.8,-15.19 -85.62,-21.88 -121.44,-10.61z"/>
   <path class="fil1" d="M14289.96 11593.11c-81.36,19.51 -110.06,68.56 -151.12,119.06 -41.57,51.12 -81.63,96.7 -123.25,144.91l-616.18 735.32c-20.61,23.81 -42.43,48.84 -62.39,71.66l-679.51 806.04c-31.19,40.92 -97.85,102.65 -104.12,168.47 -8.38,87.86 29.41,146.62 85.15,180.41 68.42,41.49 156.61,28.8 245.53,28.8l1346.19 0.15c208.58,0 288.55,-6.84 303.07,-237.53 5.42,-86.24 8.6,-175.41 12.37,-262.07 14.86,-341.93 27.1,-689.94 47.56,-1030.02l23.87 -520.37c-8.76,-149.43 -141.6,-164.72 -211.31,-191.12 -44.66,-16.92 -63.74,-26.21 -115.86,-13.71z"/>
   <path class="fil3" d="M15341.66 7168.4c-172.34,44.97 -138.55,213.12 -151.21,355.32 -14.17,159.17 -17.19,318.29 -32.3,477.13 -14.74,154.92 -19.72,316.34 -30.58,472.79 -10.95,157.89 -27.24,321.18 -33.4,476.49 -3.16,79.45 -17.46,158.68 22.55,218.51 34.64,51.8 84.53,69.98 157.72,94.5 55.56,18.6 124.79,52.51 173.04,78.89 61.18,33.46 102.05,70.18 157.17,100.45 101.3,55.62 196.6,1.28 258.39,-76.88 20.27,-25.64 37.1,-44.46 58.8,-69.96l175.65 -205.23c20.84,-25.37 40.8,-46.03 59.31,-69.37 99.02,-124.85 244.92,-280.61 347.73,-408.5 39.32,-48.92 79.49,-90.67 118.5,-138.9 48.09,-59.45 208.34,-219.79 221.07,-283.34 17.19,-85.89 -13.72,-149.73 -58.99,-185.87l-313.81 -195.76c-51.04,-30.35 -103.06,-65.83 -153.72,-98.33 -123.22,-79.06 -267.1,-159.52 -390.52,-242.43l-238.31 -147.48c-113.06,-67.66 -236.46,-180.89 -347.09,-152.03z"/>
   <path class="fil3" d="M14275.68 7180.13c-64.17,18.33 -112.19,54.74 -163.8,85.58l-474.98 281.41c-215.03,121.99 -422.02,251.2 -634.62,373.58 -56.52,32.54 -102.78,58.96 -128.41,118.48 -59.21,137.5 67.21,222.94 151.38,330.11l230.78 273.33c37.78,45.86 79.86,86.22 117.97,134.17l317.04 369.4c10.98,12.51 17.53,21.8 29.32,35.06l172.66 202.84c75.48,92.59 184.66,69.1 271.43,9.95 65.55,-44.67 167.32,-96.04 248.85,-126.58 27.78,-10.41 72.81,-21.36 96.59,-32.22 138.51,-63.3 110.21,-220.52 92.55,-385.4 -7.85,-73.37 -6.02,-157.78 -16.99,-228.46 -12.37,-79.7 -21.41,-349.6 -32.3,-470.19 -7.07,-78.43 -6.65,-161.02 -16,-237.58 -16.37,-134 -19.61,-320.47 -32.25,-470.46 -8.37,-99.39 2.34,-132.95 -48.12,-205.13 -28.74,-41.12 -105.66,-79.43 -181.1,-57.89z"/>
  </g>
 </g>
</svg>
